# xmcd
#
# Track frame offsets: 
#        150
#        11966
#        29364
#        30124
#        49064
#        70654
#        92737
#        106717
#        117971
#        138906
#        153566
#        158919
#        186308
#        207731
#        223448
#        235269
#        255687
#        266036
#        295442
#        309580
#
# Disc length: 4131 seconds
#
# Revision: 0
# Processed by: cddbd v1.5PL3 Copyright (c) Steve Scherf et al.
# Submitted via: ExactAudioCopy v0.95a4
#
DISCID=2a102114
DTITLE=Various Artist - B.Y.O.P. - Calgary Does Conners
DYEAR=1900
DGENRE=Country
TTITLE0=Tim Hus - Man With The Black Hat
TTITLE1=Agriculture Club - Tilsonburg
TTITLE2=Stompin' Tom Boom Bomb
TTITLE3=The Dudes - Luke's Guitar
TTITLE4=The Spam Avenger - The Consumer
TTITLE5=Allen Baekeland - Ripped Off Winkle
TTITLE6=The CEOs - Sudbury Saturday Night
TTITLE7=Falconhawk - I Don't Know How To Fix The Damn Thing Blues
TTITLE8=The Summerlad - I Am The Wind
TTITLE9=Matt Masters and The Gentlemen Of The Rodeo - Rubberhead
TTITLE10=Andrew King - The Legend Of The Bricklin
TTITLE11=Chantal Vitalis - Jenny Donnelly
TTITLE12=Rodney Guitarsplay - TTC Skidaddler
TTITLE13=Cripple Creek Fairies - Marten Hartwell Story
TTITLE14=Sean Marchetto - Long Time Listener, First Time Caller
TTITLE15=Jackson Phibes - She Don't Speak English
TTITLE16=Knucklehead - The Canadian Lumberjack
TTITLE17=Lorrie Matheson - Margo's Got The Cargo
TTITLE18=Tom Phillips - Tribute To Wilf Carter
TTITLE19=untitled
EXTD=
EXTT0=
EXTT1=
EXTT2=
EXTT3=
EXTT4=
EXTT5=
EXTT6=
EXTT7=
EXTT8=
EXTT9=
EXTT10=
EXTT11=
EXTT12=
EXTT13=
EXTT14=
EXTT15=
EXTT16=
EXTT17=
EXTT18=
EXTT19=
PLAYORDER=
